<svg xmlns="http://www.w3.org/2000/svg" xmlns:xlink="http://www.w3.org/1999/xlink" viewBox="0 0 840 260.01"><defs><linearGradient id="linear-gradient" x1="27.9" y1="17.66" x2="96.32" y2="195.21" gradientUnits="userSpaceOnUse"><stop offset="0" stop-color="#f9f9f9" stop-opacity="0.5"/><stop offset="1" stop-color="#fff"/></linearGradient><linearGradient id="linear-gradient-2" x1="85.49" y1="75.36" x2="154.91" y2="191.17" gradientUnits="userSpaceOnUse"><stop offset="0" stop-color="#fff"/><stop offset="1" stop-color="#f9f9f9" stop-opacity="0.4"/></linearGradient><linearGradient id="linear-gradient-3" x1="38.37" y1="167.06" x2="144.56" y2="167.06" gradientUnits="userSpaceOnUse"><stop offset="0" stop-color="#fff" stop-opacity="0.5"/><stop offset="0.52" stop-color="#fff"/><stop offset="0.71" stop-color="#fff" stop-opacity="0.99"/><stop offset="0.82" stop-color="#fefefe" stop-opacity="0.96"/><stop offset="0.9" stop-color="#fcfcfc" stop-opacity="0.92"/><stop offset="0.96" stop-color="#fafafa" stop-opacity="0.85"/><stop offset="1" stop-color="#f9f9f9" stop-opacity="0.8"/></linearGradient></defs><title>pHin_logo_white</title><g id="Layer_2" data-name="Layer 2"><g id="Layer_1-2" data-name="Layer 1"><polygon points="538.06 78.31 456.21 78.31 456.21 0.01 409.51 0.01 409.51 195.42 456.21 195.42 456.21 122.44 538.06 122.44 538.06 195.42 584.52 195.42 584.52 0.01 538.06 0.01 538.06 78.31" fill="#fff"/><rect x="601.27" y="57.69" width="46.64" height="137.73" fill="#fff"/><path d="M744.6,52.14c-20.07,0-79.93,5.55-79.93,5.55V195.42h46.64V96.66s20.21-1.27,28.35-1.27h0c17.29,0,24.79,8.21,24.79,30.37v69.66h46.64V115.9C811.09,74,794.19,52.14,744.6,52.14Z" fill="#fff"/><path d="M323.85,51.83c-20.05,1.47-78.75,5.86-78.75,5.86V260h46.64V196.73l30.58,1.33c39.08,0,72.68-22.55,72.84-74.55S356.63,49.43,323.85,51.83Zm-2.34,107.83c-7.09,0-29.77-2.2-29.77-2.2V91s18.8-.56,27.8-1.18c16.44-1.13,34.35,11.74,34.35,33.77C353.89,146.62,340.27,159.72,321.51,159.66Z" fill="#fff"/><path d="M798.73,26.47V3.12H790V0h21.12V3.12h-8.81V26.47Z" fill="#fff"/><path d="M814.58,26.47V0h5.3l6.31,18.74c.58,1.75,1,3.05,1.27,3.92.3-1,.78-2.38,1.42-4.24L835.26,0H840V26.47h-3.4V4.31l-7.74,22.16h-3.18L818,3.94V26.47Z" fill="#fff"/><path d="M23.35,89.27c16.2-26.62,39.22-54.5,54.11-71.92C86.43,6.86,92.35,0,92.35,0l28.09,32.73S106.1,54.82,92.34,72.78C86.8,80,80.84,87.47,75.63,94.68c-6.92,9.57-12.69,18.56-16.1,24.49,0,0-8.44,13.84-12.71,28.78-8,23.64-12.19,55.06,15.51,83.64a69.24,69.24,0,0,0,7,6.23l-1.2-.32c-1.56-.45-3.17-.95-4.89-1.47-14.51-4.38-30.41-14.67-38.82-23.34C-19.78,167.06,6.17,117.5,23.35,89.27Z" fill="url(#linear-gradient)"/><path d="M161.35,89.27c-26-42.66-69-89.27-69-89.27S81.2,13.05,77.45,17.36s-7.86,9.27-14.2,17c.54.7,15.36,20.49,29.11,38.45,5.54,7.24,11.51,14.69,16.72,21.9,6.92,9.57,12.69,18.56,16.1,24.49,0,0,8.44,13.84,12.7,28.78,8.05,23.64,12.2,55.06-15.51,83.64a70.16,70.16,0,0,1-7,6.23l1.19-.32c1.56-.45,3.17-.95,4.89-1.47a99.35,99.35,0,0,0,25.82-12.61,84.34,84.34,0,0,0,13-10.73c8.74-9,14.83-18.05,18.7-27.17C194.67,148.45,175.14,111.92,161.35,89.27Z" fill="url(#linear-gradient-2)"/><path d="M137.89,148c-4.27-14.93-12.71-28.78-12.71-28.78-.27-.47-.56-1-.86-1.47.29.49.59,1,.87,1.47,8.17,14.21,20.55,39.27-.56,62.16-7.21,7.82-19.74,14.18-32.28,14.18s-25.06-6.36-32.27-14.18c-21.11-22.89-8.69-47.93-.53-62.14A304.58,304.58,0,0,1,76.67,93.25c-.36.48-.71,1-1.06,1.45-6.92,9.58-12.69,18.56-16.1,24.49,0,0-8.44,13.84-12.71,28.78-8,23.65-12.19,55.07,15.51,83.65a71.79,71.79,0,0,0,7,6.2,88.21,88.21,0,0,0,46,0,70.86,70.86,0,0,0,7-6.2C150.06,203,145.93,171.61,137.89,148Z" fill="url(#linear-gradient-3)"/></g></g></svg>