<svg xmlns="http://www.w3.org/2000/svg" viewBox="0 0 200 200"><defs><style>.cls-1{isolation:isolate;}.cls-2,.cls-3{fill:#003e7e;}.cls-3{opacity:0.3;mix-blend-mode:multiply;}.cls-4{fill:#d3c5ab;}.cls-5{fill:#3f3f3f;}.cls-6{fill:#999;}.cls-7{fill:#fff;}.cls-8{fill:#e6e6e6;}.cls-9{opacity:0.8;}.cls-10{opacity:0.3;}.cls-11{fill:#969696;}.cls-12{fill:#5e5e5e;}.cls-13,.cls-16{fill:#333;}.cls-14{opacity:0.4;}.cls-15{fill:#444;}.cls-16{opacity:0.6;}.cls-17{fill:#ccc;}.cls-18{fill:none;stroke:#ccc;stroke-miterlimit:10;stroke-width:0.18px;}.cls-19{fill:#6a737e;}.cls-20{fill:gray;}</style></defs><title>bridge</title><g class="cls-1"><g id="Layer_2" data-name="Layer 2"><g id="Layer_1-2" data-name="Layer 1"><circle class="cls-2" cx="100" cy="100" r="100"/><path class="cls-3" d="M88.1,24.8A99.9,99.9,0,0,0,4.71,69.61a100,100,0,0,0,178.68,85.59A100.06,100.06,0,0,0,88.1,24.8Z"/><path class="cls-4" d="M85.54,58.42l-30.28-11a10.16,10.16,0,0,1-.58-4.2A12.9,12.9,0,0,1,55.26,39L85.54,50Z"/><polygon class="cls-5" points="85.75 49.84 55.48 38.83 55.26 39 85.54 50 85.75 49.84"/><path class="cls-4" d="M101.11,48.29l-30.28-11a10.16,10.16,0,0,1-.58-4.2,12.9,12.9,0,0,1,.58-4.22l30.28,11Z"/><polygon class="cls-5" points="101.32 39.7 71.05 28.7 70.83 28.87 101.11 39.87 101.32 39.7"/><rect class="cls-6" x="91.7" y="27.54" width="7.28" height="6.52"/><rect class="cls-6" x="102.84" y="22.68" width="7.28" height="6.52"/><path class="cls-7" d="M142,150.36,95,177.2a3.08,3.08,0,0,1-4.6-2.67V50.39L141,28.27a3.08,3.08,0,0,1,4.31,2.82V144.71A6.5,6.5,0,0,1,142,150.36Z"/><path class="cls-8" d="M68.3,37.74a8.61,8.61,0,0,0-5.16,7.89V161.56a22.26,22.26,0,0,0,.19,3,4.62,4.62,0,0,0,2.3,3,12.9,12.9,0,0,0,1.35.75l25.66,9.25a3.54,3.54,0,0,1-2.08-2.19,17.59,17.59,0,0,1-.19-2.32V56.51A9.35,9.35,0,0,1,96,47.94"/><g class="cls-9"><g class="cls-10"><polygon class="cls-11" points="82.7 106.9 69.89 102.27 69.89 82.66 82.7 87.29 82.7 106.9"/><polygon class="cls-12" points="77.2 103.3 70.97 101 70.97 84.71 77.2 87 77.2 90.31 78.17 90.72 78.17 93.07 79.74 93.44 79.74 98.69 78.17 98.31 78.17 100.83 77.2 100.55 77.2 103.3"/><polygon class="cls-13" points="70.97 101 70.97 84.71 77.2 87 77.2 90.31 78.17 90.72 78.17 93.07 79.74 93.44 79.74 98.69 78.17 98.31 78.17 98.95 70.97 101"/></g><g class="cls-14"><polygon class="cls-11" points="82.7 71.28 69.89 66.65 69.89 58.43 82.7 63.06 82.7 71.28"/><polyline class="cls-15" points="81.79 63.32 81.79 64.57 70.8 60.6 70.8 59.34"/><polyline class="cls-16" points="70.8 60.7 81.79 64.67 81.79 68.43 70.8 64.46"/></g></g><path class="cls-17" d="M91.88,51.41A9.34,9.34,0,0,1,96,47.94l41.86-18.25s2.48-1.06,3.29-1.44a3.52,3.52,0,0,1,2.83.26L116.73,17.93a4,4,0,0,0-2.74-.1c-.76.31-3,1.32-3,1.32l-8.12,3.54,5.83,2-6.52,2.84L96,25.66l-2.91,1.27-1.41.62,5.81,2-7.13,3.11-6.44-1.71L68.3,37.74a8.6,8.6,0,0,0-3.76,3.17"/><path class="cls-6" d="M96.07,38.91l24.3-10.57a7.89,7.89,0,0,1,5.75-.41h0a2.17,2.17,0,0,1,.28,3.91L102.11,42.4a7.85,7.85,0,0,1-5.75.41h0A2.17,2.17,0,0,1,96.07,38.91Z"/><path class="cls-18" d="M140.17,148.23,96.74,173.87a2.84,2.84,0,0,1-4.25-2.55V56.57A5.93,5.93,0,0,1,96,51.16l43.23-19.55a2.85,2.85,0,0,1,4,2.69V142.83A6.25,6.25,0,0,1,140.17,148.23Z"/><path class="cls-2" d="M134,72.44c0,4.17-2.89,9.06-6.46,10.92s-6.46,0-6.46-4.19a13.09,13.09,0,0,1,1.77-6.12c4.42-8,4.23-11.77,4.69-12s.38,4,4.54,7A5.13,5.13,0,0,1,134,72.44Z"/><polygon class="cls-7" points="124.23 81.47 122.14 82.56 122.14 74.94 124.23 73.85 124.23 81.47"/><polygon class="cls-19" points="119.95 73.38 119.95 77.56 116.18 79.52 116.18 75.34 114.09 76.43 114.09 86.75 116.18 85.66 116.18 81.97 119.95 80.01 119.95 83.7 122.04 82.61 122.04 72.29 119.95 73.38"/><path class="cls-19" d="M111.06,80.71l-1.51.79-1.86,1-.23.12v11l2.09-1.09V89.37l1.51-.79a6.34,6.34,0,0,0,3.12-5.3v-.6C114.18,80.81,112.88,79.76,111.06,80.71Zm1,3.4a2.64,2.64,0,0,1-1.27,2.15l-1.27.66v-3l1.27-.66c.7-.37,1.27,0,1.27.83Z"/><path class="cls-7" d="M124.95,81.1,127,80a0,0,0,0,0,0,0V76.34c0-.39,0-1.48,0-1.48l1.27-.67h0c.7-.37,1.27,0,1.27.83v3.66s0,0,0,0l2.05-1.07a0,0,0,0,0,0,0V73.63c0-2.13-1.41-2.92-3.14-2l-.51.27-3.08,1.6v7.59S124.94,81.1,124.95,81.1Z"/><path class="cls-20" d="M105,156.06a2.75,2.75,0,0,1-.18.35,2.71,2.71,0,0,1-.24.34,2.83,2.83,0,0,1-.3.3,2.16,2.16,0,0,1-.34.24,1.48,1.48,0,0,1-.59.21.76.76,0,0,1-.47-.09.78.78,0,0,1-.31-.37,1.58,1.58,0,0,1-.11-.64,2.74,2.74,0,0,1,.11-.77,3.44,3.44,0,0,1,.79-1.38,2.63,2.63,0,0,1,.59-.48,1.39,1.39,0,0,1,.53-.19.55.55,0,0,1,.46.14l-.25.37a.33.33,0,0,0-.12-.09.46.46,0,0,0-.18,0,.77.77,0,0,0-.21,0,.88.88,0,0,0-.23.09,2,2,0,0,0-.49.41,2.7,2.7,0,0,0-.37.53,2.77,2.77,0,0,0-.23.6,2.36,2.36,0,0,0-.08.6,1.43,1.43,0,0,0,.08.5.68.68,0,0,0,.23.33.57.57,0,0,0,.37.1,1.09,1.09,0,0,0,.49-.17l.22-.15a1.84,1.84,0,0,0,.22-.21,1.93,1.93,0,0,0,.2-.27,2.4,2.4,0,0,0,.18-.35Z"/><path class="cls-20" d="M107.26,154.14a1.81,1.81,0,0,1-.07.51,2.27,2.27,0,0,1-.21.49,2.24,2.24,0,0,1-.32.43,1.81,1.81,0,0,1-.41.32,1,1,0,0,1-.4.15.5.5,0,0,1-.32-.06.52.52,0,0,1-.21-.25,1,1,0,0,1-.07-.42,1.81,1.81,0,0,1,.07-.51,2.27,2.27,0,0,1,.21-.49,2.23,2.23,0,0,1,.32-.43,1.8,1.8,0,0,1,.4-.32,1.05,1.05,0,0,1,.41-.15.5.5,0,0,1,.32.06.52.52,0,0,1,.21.25A1,1,0,0,1,107.26,154.14Zm-.29.17a.88.88,0,0,0-.05-.32.41.41,0,0,0-.14-.2.35.35,0,0,0-.22-.06.69.69,0,0,0-.3.11,1.25,1.25,0,0,0-.3.24,1.56,1.56,0,0,0-.22.32,1.69,1.69,0,0,0-.14.36,1.45,1.45,0,0,0-.05.38.88.88,0,0,0,.05.32.42.42,0,0,0,.14.2.33.33,0,0,0,.22.06.69.69,0,0,0,.3-.1,1.24,1.24,0,0,0,.3-.24,1.62,1.62,0,0,0,.22-.32,1.66,1.66,0,0,0,.14-.36A1.46,1.46,0,0,0,107,154.31Z"/><path class="cls-20" d="M108,152.6q0,.09,0,.17c0,.06,0,.12,0,.18h0a1.53,1.53,0,0,1,.11-.23,1.8,1.8,0,0,1,.15-.22l.18-.19a1.12,1.12,0,0,1,.19-.14q.36-.21.54-.09t.17.54V154l-.27.16v-1.23a.83.83,0,0,0-.11-.5q-.11-.13-.4,0l-.11.09a1,1,0,0,0-.2.22,1.58,1.58,0,0,0-.18.36,1.49,1.49,0,0,0-.08.52v1.14l-.27.16v-1.73q0-.09,0-.22t0-.25Z"/><path class="cls-20" d="M110.24,151.28q0,.09,0,.17t0,.18h0a1.54,1.54,0,0,1,.11-.23,1.79,1.79,0,0,1,.15-.22l.18-.19a1.13,1.13,0,0,1,.19-.14q.36-.21.54-.09t.17.54v1.4l-.27.16v-1.23a.83.83,0,0,0-.11-.5q-.11-.13-.4,0l-.11.09a1.05,1.05,0,0,0-.2.22,1.59,1.59,0,0,0-.18.36,1.49,1.49,0,0,0-.08.52v1.14l-.27.16v-1.73c0-.06,0-.13,0-.22s0-.17,0-.25Z"/><path class="cls-20" d="M112.42,151.2a.73.73,0,0,0,.07.27.37.37,0,0,0,.15.17.37.37,0,0,0,.21,0,.62.62,0,0,0,.26-.09,1.25,1.25,0,0,0,.37-.33,1.82,1.82,0,0,0,.24-.41l.21.08a2.5,2.5,0,0,1-.37.58,1.83,1.83,0,0,1-.44.36,1,1,0,0,1-.39.14.48.48,0,0,1-.31-.06.54.54,0,0,1-.2-.25,1,1,0,0,1-.07-.42,1.84,1.84,0,0,1,.07-.51,2.26,2.26,0,0,1,.2-.49,2.21,2.21,0,0,1,.3-.42,1.63,1.63,0,0,1,.38-.31.88.88,0,0,1,.38-.13.44.44,0,0,1,.29.07.51.51,0,0,1,.18.25,1.14,1.14,0,0,1,.06.39v.14Zm1.29-1a.46.46,0,0,0-.16-.42q-.16-.1-.45.07a1.12,1.12,0,0,0-.25.21,1.68,1.68,0,0,0-.36.59.92.92,0,0,0-.05.3Z"/><path class="cls-20" d="M115.86,148.52a.28.28,0,0,0-.19-.1.47.47,0,0,0-.28.08,1.18,1.18,0,0,0-.3.24,1.55,1.55,0,0,0-.22.32,1.58,1.58,0,0,0-.14.36,1.55,1.55,0,0,0,0,.38,1,1,0,0,0,0,.32.39.39,0,0,0,.14.2.34.34,0,0,0,.22.05.7.7,0,0,0,.3-.11,1,1,0,0,0,.28-.25,1.41,1.41,0,0,0,.19-.32l.22.07a2.17,2.17,0,0,1-.32.47,1.7,1.7,0,0,1-.37.31,1.06,1.06,0,0,1-.42.16.46.46,0,0,1-.52-.31,1.17,1.17,0,0,1-.07-.43,1.94,1.94,0,0,1,.07-.51,2.11,2.11,0,0,1,.2-.49,2.17,2.17,0,0,1,.32-.43,1.75,1.75,0,0,1,.42-.33.88.88,0,0,1,.37-.12.45.45,0,0,1,.32.1Z"/><path class="cls-20" d="M117.41,147.38l-.55.32V149a.68.68,0,0,0,0,.19.14.14,0,0,0,.06.09.11.11,0,0,0,.09,0l.11,0,.14-.11.13-.14v.28a1.48,1.48,0,0,1-.36.29l-.16.07a.23.23,0,0,1-.15,0,.22.22,0,0,1-.11-.11.63.63,0,0,1,0-.27v-1.4l-.4.23v-.28l.4-.23v-.62l.27-.16v.62l.55-.32Z"/><path class="cls-20" d="M118,148a.73.73,0,0,0,.07.27.37.37,0,0,0,.15.17.37.37,0,0,0,.21,0,.62.62,0,0,0,.26-.09A1.25,1.25,0,0,0,119,148a1.83,1.83,0,0,0,.24-.41l.21.08a2.5,2.5,0,0,1-.37.58,1.83,1.83,0,0,1-.44.37,1,1,0,0,1-.39.14.48.48,0,0,1-.31-.06.54.54,0,0,1-.2-.25,1,1,0,0,1-.07-.42,1.84,1.84,0,0,1,.07-.51,2.27,2.27,0,0,1,.2-.49,2.21,2.21,0,0,1,.3-.42,1.62,1.62,0,0,1,.38-.31.88.88,0,0,1,.38-.13.44.44,0,0,1,.29.07.51.51,0,0,1,.18.25,1.14,1.14,0,0,1,.06.39V147Zm1.29-1a.46.46,0,0,0-.16-.42q-.16-.1-.45.07a1.12,1.12,0,0,0-.25.21,1.68,1.68,0,0,0-.36.59.92.92,0,0,0-.05.3Z"/><path class="cls-20" d="M121.91,146.68l-.27.16v-.37h0a1.73,1.73,0,0,1-.15.28,2.23,2.23,0,0,1-.19.24,1.78,1.78,0,0,1-.2.19l-.2.14a1,1,0,0,1-.41.15.51.51,0,0,1-.32-.06.52.52,0,0,1-.21-.25,1,1,0,0,1-.07-.42,1.81,1.81,0,0,1,.07-.51,2.27,2.27,0,0,1,.21-.49,2.23,2.23,0,0,1,.32-.43,1.83,1.83,0,0,1,.41-.32l.2-.09a.71.71,0,0,1,.2,0,.53.53,0,0,1,.19,0,.33.33,0,0,1,.15.1h0v-1.73l.27-.16Zm-1.73-.1a.88.88,0,0,0,.05.32.4.4,0,0,0,.14.2.35.35,0,0,0,.22.06.69.69,0,0,0,.3-.1,1.32,1.32,0,0,0,.3-.24,1.76,1.76,0,0,0,.24-.33,1.72,1.72,0,0,0,.16-.37,1.34,1.34,0,0,0,.06-.38.77.77,0,0,0-.06-.31.37.37,0,0,0-.4-.23.74.74,0,0,0-.3.11,1.25,1.25,0,0,0-.3.24,1.63,1.63,0,0,0-.22.32,1.66,1.66,0,0,0-.14.36A1.45,1.45,0,0,0,120.18,146.58Z"/><path class="cls-20" d="M123.51,145.75l-.29.17v-1.44l-1.07-1.28.36-.21.85,1.08.85-2.08.36-.21-1.07,2.53Z"/><path class="cls-20" d="M125.65,143.14v-.06q0-.57-.49-.29a1.69,1.69,0,0,0-.58.6l-.16-.13a2.1,2.1,0,0,1,.8-.79.9.9,0,0,1,.26-.11.35.35,0,0,1,.22,0,.32.32,0,0,1,.15.16.73.73,0,0,1,.06.32v1c0,.09,0,.17,0,.26s0,.16,0,.22l-.26.15s0-.1,0-.16,0-.12,0-.18h0a1.77,1.77,0,0,1-.28.48,1.47,1.47,0,0,1-.39.32.89.89,0,0,1-.24.1.38.38,0,0,1-.21,0,.26.26,0,0,1-.15-.12.48.48,0,0,1-.05-.25,1,1,0,0,1,.12-.49,1.71,1.71,0,0,1,.3-.4,2.6,2.6,0,0,1,.38-.32l.37-.24Zm-.14.34-.25.16a2.44,2.44,0,0,0-.29.23,1.41,1.41,0,0,0-.24.28.58.58,0,0,0-.1.32.29.29,0,0,0,0,.16.16.16,0,0,0,.1.07.3.3,0,0,0,.14,0l.16-.07a1,1,0,0,0,.25-.2,1.26,1.26,0,0,0,.18-.26,1.19,1.19,0,0,0,.11-.29,1.33,1.33,0,0,0,0-.3v-.16Z"/><path class="cls-20" d="M126.57,142.44q0-.15,0-.29t0-.39l.26-.15V142h0a1.34,1.34,0,0,1,.08-.22,1.55,1.55,0,0,1,.13-.22,1.42,1.42,0,0,1,.17-.21,1.13,1.13,0,0,1,.22-.17.78.78,0,0,1,.2-.09l-.05.34a.47.47,0,0,0-.15.07,1,1,0,0,0-.26.22,1.46,1.46,0,0,0-.29.57,1.12,1.12,0,0,0,0,.26v1.25l-.27.16Z"/><path class="cls-20" d="M129.7,142.14l-.27.16v-.37h0a1.73,1.73,0,0,1-.15.28,2.25,2.25,0,0,1-.19.24,1.75,1.75,0,0,1-.2.19l-.2.14a1.05,1.05,0,0,1-.41.15.51.51,0,0,1-.32-.06.52.52,0,0,1-.21-.25,1,1,0,0,1-.07-.42,1.81,1.81,0,0,1,.07-.51,2.26,2.26,0,0,1,.21-.49,2.22,2.22,0,0,1,.32-.43,1.81,1.81,0,0,1,.41-.32l.2-.09a.71.71,0,0,1,.2,0,.53.53,0,0,1,.19,0,.33.33,0,0,1,.15.1h0v-1.73l.27-.16ZM128,142a.88.88,0,0,0,.05.32.4.4,0,0,0,.14.2.35.35,0,0,0,.22.06.69.69,0,0,0,.3-.1,1.32,1.32,0,0,0,.3-.24,1.76,1.76,0,0,0,.24-.33,1.72,1.72,0,0,0,.16-.37,1.35,1.35,0,0,0,.06-.38.77.77,0,0,0-.06-.31.37.37,0,0,0-.4-.23.74.74,0,0,0-.3.11,1.25,1.25,0,0,0-.3.24,1.63,1.63,0,0,0-.22.32,1.66,1.66,0,0,0-.14.36A1.46,1.46,0,0,0,128,142Z"/><path class="cls-20" d="M131.79,140.91l-.29.17v-3.35l.29-.17Z"/><path class="cls-20" d="M132.73,138.15q0,.09,0,.17c0,.06,0,.12,0,.18h0a1.53,1.53,0,0,1,.11-.23A1.77,1.77,0,0,1,133,138l.18-.19a1.13,1.13,0,0,1,.19-.14q.36-.21.54-.09t.17.54v1.4l-.27.16V138.5a.83.83,0,0,0-.11-.5q-.11-.13-.4,0l-.11.09a1,1,0,0,0-.2.22,1.58,1.58,0,0,0-.18.36,1.49,1.49,0,0,0-.08.52v1.14l-.27.16v-1.73c0-.06,0-.13,0-.22s0-.17,0-.25Z"/><path class="cls-20" d="M136.1,136.7a.28.28,0,0,0-.19-.1.47.47,0,0,0-.28.08,1.18,1.18,0,0,0-.3.24,1.55,1.55,0,0,0-.22.32,1.58,1.58,0,0,0-.14.36,1.55,1.55,0,0,0,0,.38,1,1,0,0,0,0,.32.39.39,0,0,0,.14.2.34.34,0,0,0,.22.05.7.7,0,0,0,.3-.11,1,1,0,0,0,.28-.25,1.4,1.4,0,0,0,.19-.32l.22.07a2.17,2.17,0,0,1-.32.47,1.7,1.7,0,0,1-.37.31,1.06,1.06,0,0,1-.42.16.46.46,0,0,1-.52-.31,1.17,1.17,0,0,1-.07-.43,1.94,1.94,0,0,1,.07-.51,2.11,2.11,0,0,1,.2-.49,2.17,2.17,0,0,1,.32-.43,1.75,1.75,0,0,1,.42-.33.88.88,0,0,1,.37-.12.45.45,0,0,1,.32.1Z"/><path class="cls-20" d="M137.16,137.55a.45.45,0,0,1-.06.21.42.42,0,0,1-.16.17.14.14,0,0,1-.16,0,.16.16,0,0,1-.06-.14.46.46,0,0,1,.06-.21.42.42,0,0,1,.16-.17.14.14,0,0,1,.16,0A.16.16,0,0,1,137.16,137.55Z"/></g></g></g></svg>